<svg clip-rule="evenodd" fill-rule="evenodd" height="2048" image-rendering="optimizeQuality" shape-rendering="geometricPrecision" text-rendering="geometricPrecision" width="2048" xmlns="http://www.w3.org/2000/svg"><path d="M1024 255.998c212.073 0 404.074 85.963 543.056 224.946 138.983 138.982 224.946 330.983 224.946 543.056s-85.963 404.074-224.946 543.056c-138.982 138.983-330.983 224.946-543.056 224.946s-404.074-85.963-543.056-224.946C341.961 1428.074 255.998 1236.073 255.998 1024s85.963-404.074 224.946-543.056C619.926 341.961 811.927 255.998 1024 255.998zm497.806 270.196C1394.41 398.797 1218.408 319.999 1024 319.999c-194.407 0-370.409 78.797-497.806 206.195C398.797 653.59 319.999 829.592 319.999 1024c0 194.407 78.797 370.409 206.195 497.806C653.59 1649.203 829.592 1728.001 1024 1728.001c194.407 0 370.409-78.797 497.806-206.195 127.397-127.396 206.195-303.398 206.195-497.806 0-194.407-78.797-370.409-206.195-497.806z" fill="#212121" fill-rule="nonzero"/><path d="M1056 352.759v593.99l420.014-420.014a680.552 680.552 0 0123.163 22.088 680.53 680.53 0 0122.087 23.162L1101.25 992h593.99c.501 10.63.76 21.3.76 32.001s-.259 21.371-.76 32.001h-593.99l420.014 420.014a680.552 680.552 0 01-22.087 23.163 680.53 680.53 0 01-23.163 22.087L1056 1101.251v593.99c-10.63.501-21.299.76-32 .76s-21.372-.259-32.002-.76v-593.99l-420.014 420.014a680.552 680.552 0 01-23.162-22.087 680.53 680.53 0 01-22.088-23.163l420.014-420.014h-593.99c-.5-10.63-.76-21.299-.76-32s.26-21.372.76-32.002h593.99L526.734 571.985a680.552 680.552 0 0122.088-23.162 680.53 680.53 0 0123.162-22.088l420.014 420.014v-593.99c10.63-.5 21.3-.76 32.001-.76s21.371.26 32.001.76z" fill="#66bb6a" fill-rule="nonzero"/><path d="M0 0h2048v2048H0z" fill="none"/></svg>