<svg clip-rule="evenodd" fill-rule="evenodd" height="2048" image-rendering="optimizeQuality" shape-rendering="geometricPrecision" text-rendering="geometricPrecision" viewBox="0 0 2048 2048" width="2048" xmlns="http://www.w3.org/2000/svg"><path d="m1024 255.998c212.073 0 404.074 85.9631 543.056 224.946 138.983 138.982 224.946 330.983 224.946 543.056s-85.9631 404.074-224.946 543.056c-138.982 138.983-330.983 224.946-543.056 224.946s-404.074-85.9631-543.056-224.946c-138.983-138.982-224.946-330.983-224.946-543.056s85.9631-404.074 224.946-543.056c138.982-138.983 330.983-224.946 543.056-224.946zm497.806 270.196c-127.396-127.397-303.398-206.195-497.806-206.195-194.407 0-370.409 78.7973-497.806 206.195-127.397 127.396-206.195 303.398-206.195 497.806 0 194.407 78.7973 370.409 206.195 497.806 127.396 127.397 303.398 206.195 497.806 206.195 194.407 0 370.409-78.7973 497.806-206.195 127.397-127.396 206.195-303.398 206.195-497.806 0-194.407-78.7973-370.409-206.195-497.806z" fill="#212121" fill-rule="nonzero"/><path d="m1056 352.759v593.99l420.014-420.014c7.86969 7.16221 15.5965 14.5217 23.1626 22.0878 7.56615 7.56615 14.9256 15.2929 22.0878 23.1626l-420.014 420.014h593.99c.500788 10.6299.759449 21.2988.759449 32.0008s-.258662 21.3709-.759449 32.0008h-593.99l420.014 420.014c-7.16221 7.86969-14.5217 15.5965-22.0878 23.1626-7.56615 7.56615-15.2929 14.9256-23.1626 22.0878l-420.014-420.014v593.99c-10.6299.500788-21.2988.759449-32.0008.759449s-21.3709-.258662-32.0008-.759449v-593.99l-420.014 420.014c-7.86969-7.16221-15.5965-14.5217-23.1626-22.0878-7.56615-7.56615-14.9256-15.2929-22.0878-23.1626l420.014-420.014h-593.99c-.500788-10.6299-.759449-21.2988-.759449-32.0008s.258662-21.3709.759449-32.0008h593.99l-420.014-420.014c7.16221-7.86969 14.5217-15.5965 22.0878-23.1626 7.56615-7.56615 15.2929-14.9256 23.1626-22.0878l420.014 420.014v-593.99c10.6299-.500788 21.2988-.759449 32.0008-.759449s21.3709.258662 32.0008.759449z" fill="#66bb6a" fill-rule="nonzero"/><path d="m0 0h2048v2048h-2048z" fill="none"/></svg>